<svg xmlns="http://www.w3.org/2000/svg" xmlns:xlink="http://www.w3.org/1999/xlink" width="81.991" height="87.548" viewBox="0 0 81.991 87.548"><defs><filter id="a" x="20.955" y="0" width="26.781" height="55.199" filterUnits="userSpaceOnUse"><feOffset dy="3" input="SourceAlpha"/><feGaussianBlur stdDeviation="3" result="b"/><feFlood flood-color="#2525be"/><feComposite operator="in" in2="b"/><feComposite in="SourceGraphic"/></filter><filter id="c" x="0" y="11.165" width="26.781" height="55.199" filterUnits="userSpaceOnUse"><feOffset dy="3" input="SourceAlpha"/><feGaussianBlur stdDeviation="3" result="d"/><feFlood flood-color="#2525be"/><feComposite operator="in" in2="d"/><feComposite in="SourceGraphic"/></filter><filter id="e" x="10.876" y="5.687" width="26.463" height="46.1" filterUnits="userSpaceOnUse"><feOffset dy="3" input="SourceAlpha"/><feGaussianBlur stdDeviation="3" result="f"/><feFlood flood-color="#2525be"/><feComposite operator="in" in2="f"/><feComposite in="SourceGraphic"/></filter><filter id="g" x="27.868" y="24.227" width="53.316" height="43.943" filterUnits="userSpaceOnUse"><feOffset dy="3" input="SourceAlpha"/><feGaussianBlur stdDeviation="3" result="h"/><feFlood flood-color="#6970fb"/><feComposite operator="in" in2="h"/><feComposite in="SourceGraphic"/></filter><filter id="i" x="28.675" y="0.498" width="53.316" height="43.943" filterUnits="userSpaceOnUse"><feOffset dy="3" input="SourceAlpha"/><feGaussianBlur stdDeviation="3" result="j"/><feFlood flood-color="#6970fb"/><feComposite operator="in" in2="j"/><feComposite in="SourceGraphic"/></filter><filter id="k" x="35.861" y="17.205" width="45.595" height="39.118" filterUnits="userSpaceOnUse"><feOffset dy="3" input="SourceAlpha"/><feGaussianBlur stdDeviation="3" result="l"/><feFlood flood-color="#fdec00"/><feComposite operator="in" in2="l"/><feComposite in="SourceGraphic"/></filter><filter id="m" x="1.578" y="33.013" width="54.152" height="41.97" filterUnits="userSpaceOnUse"><feOffset dy="3" input="SourceAlpha"/><feGaussianBlur stdDeviation="3" result="n"/><feFlood flood-color="#2525be"/><feComposite operator="in" in2="n"/><feComposite in="SourceGraphic"/></filter><filter id="o" x="21.725" y="45.578" width="54.152" height="41.97" filterUnits="userSpaceOnUse"><feOffset dy="3" input="SourceAlpha"/><feGaussianBlur stdDeviation="3" result="p"/><feFlood flood-color="#2525be"/><feComposite operator="in" in2="p"/><feComposite in="SourceGraphic"/></filter><filter id="q" x="11.702" y="43.447" width="46.114" height="37.696" filterUnits="userSpaceOnUse"><feOffset dy="3" input="SourceAlpha"/><feGaussianBlur stdDeviation="3" result="r"/><feFlood flood-color="#2525be"/><feComposite operator="in" in2="r"/><feComposite in="SourceGraphic"/></filter></defs><g transform="matrix(0.999, 0.035, -0.035, 0.999, -762.714, -397.355)"><g transform="translate(787 375.4)"><g transform="matrix(1, -0.03, 0.03, 1, -10.88, -4.91)" filter="url(#a)"><path d="M0-19.591,7.5-23.6V9.011L0,13.36Z" transform="matrix(1, 0.03, -0.03, 1, 30.42, 29.59)" fill="#202bf9"/></g><g transform="matrix(1, -0.03, 0.03, 1, -10.88, -4.91)" filter="url(#c)"><path d="M0-19.591,7.5-23.6V9.011L0,13.36Z" transform="matrix(1, 0.03, -0.03, 1, 9.47, 40.75)" fill="#202bf9"/></g><g transform="matrix(1, -0.03, 0.03, 1, -10.88, -4.91)" filter="url(#e)"><path d="M0-27.141l7.5-4.192V-7.781L0-3.478Z" transform="matrix(1, 0.03, -0.03, 1, 19.76, 43)" fill="#202bf9"/></g></g><g transform="translate(860.271 399.959) rotate(120)"><g transform="matrix(-0.53, -0.85, 0.85, -0.53, 16.56, 87.61)" filter="url(#g)"><path d="M0,4.008,7.5,0V32.611L0,36.96Z" transform="translate(72.18 49.81) rotate(122)" fill="#6970fb"/></g><g transform="matrix(-0.53, -0.85, 0.85, -0.53, 16.56, 87.61)" filter="url(#i)"><path d="M0,4.008,7.5,0V32.611L0,36.96Z" transform="translate(72.99 26.08) rotate(122)" fill="#6970fb"/></g><g transform="matrix(-0.53, -0.85, 0.85, -0.53, 16.56, 87.61)" filter="url(#k)"><path d="M0,4.192,7.5,0V23.553L0,27.856Z" transform="translate(72.46 37.97) rotate(122)" fill="#fdec00"/></g></g><g transform="translate(802.68 450.746) rotate(-120)"><g transform="matrix(-0.47, 0.88, -0.88, -0.47, 82.78, 17.12)" filter="url(#m)"><path d="M0,4.008,7.5,0V32.611L0,36.96Z" transform="translate(14.1 62.98) rotate(-118)" fill="#0a15d4"/></g><g transform="matrix(-0.47, 0.88, -0.88, -0.47, 82.78, 17.12)" filter="url(#o)"><path d="M0,4.008,7.5,0V32.611L0,36.96Z" transform="translate(34.24 75.55) rotate(-118)" fill="#0a15d4"/></g><g transform="matrix(-0.47, 0.88, -0.88, -0.47, 82.78, 17.12)" filter="url(#q)"><path d="M0,4.192,7.5,0V23.553L0,27.856Z" transform="translate(24.22 69.14) rotate(-118)" fill="#2525be"/></g></g></g></svg>